<svg width="48" height="48" viewBox="0 0 48 48" xmlns="http://www.w3.org/2000/svg">
  <path fill="#EA4335" d="M24 9.5c3.54 0 6.71 1.22 9.21 3.6l6.85-6.85C35.9 2.38 30.47 0 24 0 14.64 0 6.53 5.38 2.56 13.22l7.98 6.19C12.43 13.72 17.74 9.5 24 9.5z"/>
  <path fill="#4285F4" d="M46.5 24.5c0-1.64-.15-3.22-.43-4.75H24v9h12.7c-.55 2.97-2.21 5.48-4.7 7.18l7.2 5.6c4.21-3.88 6.6-9.6 6.6-17.03z"/>
  <path fill="#FBBC05" d="M10.54 28.41c-.48-1.44-.76-2.98-.76-4.41s.28-2.97.76-4.41l-7.98-6.19C.92 16.41 0 20.08 0 24s.92 7.59 2.56 10.6l7.98-6.19z"/>
  <path fill="#34A853" d="M24 48c6.48 0 11.93-2.13 15.9-5.77l-7.2-5.6c-2 1.34-4.57 2.13-8.7 2.13-6.26 0-11.57-4.22-13.46-9.91l-7.98 6.19C6.53 42.62 14.64 48 24 48z"/>
</svg>
